<?xml version="1.0" encoding="UTF-8"?><svg xmlns="http://www.w3.org/2000/svg" xmlns:xlink="http://www.w3.org/1999/xlink" fill-opacity="1" color-rendering="auto" color-interpolation="auto" text-rendering="auto" stroke="black" stroke-linecap="square" width="468" stroke-miterlimit="10" shape-rendering="auto" stroke-opacity="1" fill="black" stroke-dasharray="none" font-weight="normal" stroke-width="1" height="568" font-family="'Dialog'" font-style="normal" stroke-linejoin="miter" font-size="12px" stroke-dashoffset="0" image-rendering="auto">
  <!--Generated by ySVG 2.5-->
  <defs id="genericDefs"/>
  <g>
    <defs id="defs1">
      <clipPath clipPathUnits="userSpaceOnUse" id="clipPath1">
        <path d="M0 0 L468 0 L468 568 L0 568 L0 0 Z"/>
      </clipPath>
      <clipPath clipPathUnits="userSpaceOnUse" id="clipPath2">
        <path d="M153 150 L621 150 L621 718 L153 718 L153 150 Z"/>
      </clipPath>
    </defs>
    <g fill="white" text-rendering="geometricPrecision" shape-rendering="geometricPrecision" transform="translate(-153,-150)" stroke="white">
      <rect x="153" width="468" height="568" y="150" clip-path="url(#clipPath2)" stroke="none"/>
    </g>
    <g fill="rgb(255,204,0)" text-rendering="geometricPrecision" shape-rendering="geometricPrecision" transform="matrix(1,0,0,1,-153,-150)" stroke="rgb(255,204,0)">
      <rect x="182" width="163" height="101" y="165" clip-path="url(#clipPath2)" stroke="none"/>
    </g>
    <g text-rendering="geometricPrecision" stroke-miterlimit="1.45" shape-rendering="geometricPrecision" transform="matrix(1,0,0,1,-153,-150)" stroke-linecap="butt">
      <rect fill="none" x="182" width="163" height="101" y="165" clip-path="url(#clipPath2)"/>
      <text x="211.7617" xml:space="preserve" y="219.6543" clip-path="url(#clipPath2)" font-family="sans-serif" stroke="none">Home Unconnect</text>
    </g>
    <g fill="rgb(255,204,0)" text-rendering="geometricPrecision" shape-rendering="geometricPrecision" transform="matrix(1,0,0,1,-153,-150)" stroke="rgb(255,204,0)">
      <rect x="182" width="163" height="101" y="306.3114" clip-path="url(#clipPath2)" stroke="none"/>
    </g>
    <g text-rendering="geometricPrecision" stroke-miterlimit="1.45" shape-rendering="geometricPrecision" transform="matrix(1,0,0,1,-153,-150)" stroke-linecap="butt">
      <rect fill="none" x="182" width="163" height="101" y="306.3114" clip-path="url(#clipPath2)"/>
      <text x="214.9492" xml:space="preserve" y="360.9657" clip-path="url(#clipPath2)" font-family="sans-serif" stroke="none">Page Connexion</text>
    </g>
    <g fill="rgb(255,204,0)" text-rendering="geometricPrecision" shape-rendering="geometricPrecision" transform="matrix(1,0,0,1,-153,-150)" stroke="rgb(255,204,0)">
      <path d="M199.4461 504.274 L263.5 447.6228 L327.5539 504.274 L263.5 560.9252 Z" fill-rule="evenodd" clip-path="url(#clipPath2)" stroke="none"/>
    </g>
    <g text-rendering="geometricPrecision" stroke-miterlimit="1.45" shape-rendering="geometricPrecision" transform="matrix(1,0,0,1,-153,-150)" stroke-linecap="butt">
      <path fill="none" d="M199.4461 504.274 L263.5 447.6228 L327.5539 504.274 L263.5 560.9252 Z" fill-rule="evenodd" clip-path="url(#clipPath2)"/>
      <text x="211.6826" xml:space="preserve" y="508.4283" clip-path="url(#clipPath2)" font-family="sans-serif" stroke="none">Connexion validé</text>
    </g>
    <g fill="rgb(255,204,0)" text-rendering="geometricPrecision" shape-rendering="geometricPrecision" transform="matrix(1,0,0,1,-153,-150)" stroke="rgb(255,204,0)">
      <rect x="182" width="163" height="101" y="601.2366" clip-path="url(#clipPath2)" stroke="none"/>
    </g>
    <g text-rendering="geometricPrecision" stroke-miterlimit="1.45" shape-rendering="geometricPrecision" transform="matrix(1,0,0,1,-153,-150)" stroke-linecap="butt">
      <rect fill="none" x="182" width="163" height="101" y="601.2366" clip-path="url(#clipPath2)"/>
      <text x="211.5654" xml:space="preserve" y="655.8909" clip-path="url(#clipPath2)" font-family="sans-serif" stroke="none">Home Connected</text>
    </g>
    <g fill="rgb(255,204,0)" text-rendering="geometricPrecision" shape-rendering="geometricPrecision" transform="matrix(1,0,0,1,-153,-150)" stroke="rgb(255,204,0)">
      <circle r="21.875" clip-path="url(#clipPath2)" cx="534.8013" cy="431.7041" stroke="none"/>
    </g>
    <g text-rendering="geometricPrecision" stroke-miterlimit="1.45" shape-rendering="geometricPrecision" transform="matrix(1,0,0,1,-153,-150)" stroke-linecap="butt">
      <circle fill="none" r="21.875" clip-path="url(#clipPath2)" cx="534.8013" cy="431.7041"/>
      <text x="516.6108" xml:space="preserve" y="435.8583" clip-path="url(#clipPath2)" font-family="sans-serif" stroke="none">5 KOS</text>
      <text x="466.0357" xml:space="preserve" y="485.2293" clip-path="url(#clipPath2)" font-family="sans-serif" stroke="none">30 minutes de blocage</text>
      <path fill="none" d="M263.5 266 L263.5 298.3114" clip-path="url(#clipPath2)"/>
      <path d="M263.5 306.3114 L268.5 294.3114 L263.5 297.3114 L258.5 294.3114 Z" clip-path="url(#clipPath2)" stroke="none"/>
      <path fill="none" d="M263.5 407.3114 L263.5 439.602" clip-path="url(#clipPath2)"/>
      <path d="M263.5 447.602 L268.5 435.602 L263.5 438.602 L258.5 435.602 Z" clip-path="url(#clipPath2)" stroke="none"/>
      <text x="170.834" xml:space="preserve" y="431.6214" clip-path="url(#clipPath2)" font-family="sans-serif" stroke="none">Envoie du formulaire</text>
      <path fill="none" d="M327.5711 504.274 L431.8356 504.274 L431.8356 356.8114 L353 356.8114" clip-path="url(#clipPath2)"/>
      <path d="M345 356.8114 L357 361.8114 L354 356.8114 L357 351.8114 Z" clip-path="url(#clipPath2)" stroke="none"/>
      <text x="388.8659" xml:space="preserve" y="434.697" clip-path="url(#clipPath2)" font-family="sans-serif" stroke="none">Formulaire KO</text>
      <path fill="none" d="M263.5 560.9045 L263.5 593.2366" clip-path="url(#clipPath2)"/>
      <path d="M263.5 601.2366 L268.5 589.2366 L263.5 592.2366 L258.5 589.2366 Z" clip-path="url(#clipPath2)" stroke="none"/>
      <text x="220.5303" xml:space="preserve" y="585.2352" clip-path="url(#clipPath2)" font-family="sans-serif" stroke="none">Formulaire OK</text>
    </g>
  </g>
</svg>
