<?xml version="1.0" encoding="UTF-8"?><svg xmlns="http://www.w3.org/2000/svg" xmlns:xlink="http://www.w3.org/1999/xlink" fill-opacity="1" color-rendering="auto" color-interpolation="auto" text-rendering="auto" stroke="black" stroke-linecap="square" width="682" stroke-miterlimit="10" shape-rendering="auto" stroke-opacity="1" fill="black" stroke-dasharray="none" font-weight="normal" stroke-width="1" height="641" font-family="'Dialog'" font-style="normal" stroke-linejoin="miter" font-size="12px" stroke-dashoffset="0" image-rendering="auto">
  <!--Generated by ySVG 2.5-->
  <defs id="genericDefs"/>
  <g>
    <defs id="defs1">
      <clipPath clipPathUnits="userSpaceOnUse" id="clipPath1">
        <path d="M0 0 L682 0 L682 641 L0 641 L0 0 Z"/>
      </clipPath>
      <clipPath clipPathUnits="userSpaceOnUse" id="clipPath2">
        <path d="M29 175 L711 175 L711 816 L29 816 L29 175 Z"/>
      </clipPath>
    </defs>
    <g fill="white" text-rendering="geometricPrecision" shape-rendering="geometricPrecision" transform="translate(-29,-175)" stroke="white">
      <rect x="29" width="682" height="641" y="175" clip-path="url(#clipPath2)" stroke="none"/>
    </g>
    <g fill="rgb(255,204,0)" text-rendering="geometricPrecision" shape-rendering="geometricPrecision" transform="matrix(1,0,0,1,-29,-175)" stroke="rgb(255,204,0)">
      <rect x="207" width="163" height="101" y="190" clip-path="url(#clipPath2)" stroke="none"/>
    </g>
    <g text-rendering="geometricPrecision" stroke-miterlimit="1.45" shape-rendering="geometricPrecision" transform="matrix(1,0,0,1,-29,-175)" stroke-linecap="butt">
      <rect fill="none" x="207" width="163" height="101" y="190" clip-path="url(#clipPath2)"/>
      <text x="244.0654" xml:space="preserve" y="244.6543" clip-path="url(#clipPath2)" font-family="sans-serif" stroke="none">Home Connect</text>
    </g>
    <g fill="rgb(255,204,0)" text-rendering="geometricPrecision" shape-rendering="geometricPrecision" transform="matrix(1,0,0,1,-29,-175)" stroke="rgb(255,204,0)">
      <rect x="44" width="163" height="101" y="331.3114" clip-path="url(#clipPath2)" stroke="none"/>
    </g>
    <g text-rendering="geometricPrecision" stroke-miterlimit="1.45" shape-rendering="geometricPrecision" transform="matrix(1,0,0,1,-29,-175)" stroke-linecap="butt">
      <rect fill="none" x="44" width="163" height="101" y="331.3114" clip-path="url(#clipPath2)"/>
      <text x="72.2119" xml:space="preserve" y="385.9657" clip-path="url(#clipPath2)" font-family="sans-serif" stroke="none">Offset Numerique</text>
    </g>
    <g fill="rgb(255,204,0)" text-rendering="geometricPrecision" shape-rendering="geometricPrecision" transform="matrix(1,0,0,1,-29,-175)" stroke="rgb(255,204,0)">
      <rect x="370" width="163" height="101" y="331.3114" clip-path="url(#clipPath2)" stroke="none"/>
    </g>
    <g text-rendering="geometricPrecision" stroke-miterlimit="1.45" shape-rendering="geometricPrecision" transform="matrix(1,0,0,1,-29,-175)" stroke-linecap="butt">
      <rect fill="none" x="370" width="163" height="101" y="331.3114" clip-path="url(#clipPath2)"/>
      <text x="395.54" xml:space="preserve" y="385.9657" clip-path="url(#clipPath2)" font-family="sans-serif" stroke="none">Photocopie Details</text>
    </g>
    <g fill="rgb(255,204,0)" text-rendering="geometricPrecision" shape-rendering="geometricPrecision" transform="matrix(1,0,0,1,-29,-175)" stroke="rgb(255,204,0)">
      <rect x="44" width="163" height="101" y="462.3114" clip-path="url(#clipPath2)" stroke="none"/>
    </g>
    <g text-rendering="geometricPrecision" stroke-miterlimit="1.45" shape-rendering="geometricPrecision" transform="matrix(1,0,0,1,-29,-175)" stroke-linecap="butt">
      <rect fill="none" x="44" width="163" height="101" y="462.3114" clip-path="url(#clipPath2)"/>
      <text x="75.8711" xml:space="preserve" y="516.9657" clip-path="url(#clipPath2)" font-family="sans-serif" stroke="none">Choix de l'Offset</text>
    </g>
    <g fill="rgb(255,204,0)" text-rendering="geometricPrecision" shape-rendering="geometricPrecision" transform="matrix(1,0,0,1,-29,-175)" stroke="rgb(255,204,0)">
      <path d="M404 512.8114 L451.5 465.3114 L499 512.8114 L451.5 560.3114 Z" fill-rule="evenodd" clip-path="url(#clipPath2)" stroke="none"/>
    </g>
    <g text-rendering="geometricPrecision" stroke-miterlimit="1.45" shape-rendering="geometricPrecision" transform="matrix(1,0,0,1,-29,-175)" stroke-linecap="butt">
      <path fill="none" d="M404 512.8114 L451.5 465.3114 L499 512.8114 L451.5 560.3114 Z" fill-rule="evenodd" clip-path="url(#clipPath2)"/>
      <text x="432.7119" xml:space="preserve" y="516.9657" clip-path="url(#clipPath2)" font-family="sans-serif" stroke="none">Choix </text>
    </g>
    <g fill="rgb(255,204,0)" text-rendering="geometricPrecision" shape-rendering="geometricPrecision" transform="matrix(1,0,0,1,-29,-175)" stroke="rgb(255,204,0)">
      <path d="M78 640.8114 L125.5 593.3114 L173 640.8114 L125.5 688.3114 Z" fill-rule="evenodd" clip-path="url(#clipPath2)" stroke="none"/>
    </g>
    <g text-rendering="geometricPrecision" stroke-miterlimit="1.45" shape-rendering="geometricPrecision" transform="matrix(1,0,0,1,-29,-175)" stroke-linecap="butt">
      <path fill="none" d="M78 640.8114 L125.5 593.3114 L173 640.8114 L125.5 688.3114 Z" fill-rule="evenodd" clip-path="url(#clipPath2)"/>
      <text x="106.7119" xml:space="preserve" y="644.9657" clip-path="url(#clipPath2)" font-family="sans-serif" stroke="none">Choix </text>
    </g>
    <g fill="rgb(255,204,0)" text-rendering="geometricPrecision" shape-rendering="geometricPrecision" transform="matrix(1,0,0,1,-29,-175)" stroke="rgb(255,204,0)">
      <rect x="207" width="163" height="101" y="700" clip-path="url(#clipPath2)" stroke="none"/>
    </g>
    <g text-rendering="geometricPrecision" stroke-miterlimit="1.45" shape-rendering="geometricPrecision" transform="matrix(1,0,0,1,-29,-175)" stroke-linecap="butt">
      <rect fill="none" x="207" width="163" height="101" y="700" clip-path="url(#clipPath2)"/>
      <text x="226.4609" xml:space="preserve" y="754.6543" clip-path="url(#clipPath2)" font-family="sans-serif" stroke="none">Génération d'un PDF</text>
      <path fill="none" d="M230.2492 291 L189.7955 326.071" clip-path="url(#clipPath2)"/>
      <path d="M183.7508 331.3114 L196.0931 327.2288 L190.5511 325.416 L189.5426 319.6729 Z" clip-path="url(#clipPath2)" stroke="none"/>
      <path fill="none" d="M346.7508 291 L387.2045 326.071" clip-path="url(#clipPath2)"/>
      <path d="M393.2492 331.3114 L387.4574 319.6729 L386.4489 325.416 L380.9069 327.2287 Z" clip-path="url(#clipPath2)" stroke="none"/>
      <path fill="none" d="M125.5 432.3114 L125.5 454.3114" clip-path="url(#clipPath2)"/>
      <path d="M125.5 462.3114 L130.5 450.3114 L125.5 453.3114 L120.5 450.3114 Z" clip-path="url(#clipPath2)" stroke="none"/>
      <path fill="none" d="M451.5 432.3114 L451.5 457.2897" clip-path="url(#clipPath2)"/>
      <path d="M451.5 465.2897 L456.5 453.2897 L451.5 456.2897 L446.5 453.2897 Z" clip-path="url(#clipPath2)" stroke="none"/>
      <text x="401.3262" xml:space="preserve" y="452.9657" clip-path="url(#clipPath2)" font-family="sans-serif" stroke="none">Envoie</text>
      <path fill="none" d="M498.9884 512.8114 L651 512.8114 L651 381.8114 L541 381.8114" clip-path="url(#clipPath2)"/>
      <path d="M533 381.8114 L545 386.8114 L542 381.8114 L545 376.8114 Z" clip-path="url(#clipPath2)" stroke="none"/>
      <text x="608.0303" xml:space="preserve" y="451.4657" clip-path="url(#clipPath2)" font-family="sans-serif" stroke="none">Formulaire KO</text>
      <path fill="none" d="M125.5 563.3114 L125.5 585.3199" clip-path="url(#clipPath2)"/>
      <path d="M125.5 593.3199 L130.5 581.3199 L125.5 584.3199 L120.5 581.3199 Z" clip-path="url(#clipPath2)" stroke="none"/>
      <text x="75.3262" xml:space="preserve" y="582.4657" clip-path="url(#clipPath2)" font-family="sans-serif" stroke="none">Envoie</text>
      <path fill="none" d="M173.0317 640.8114 L280.6314 640.8114 L280.6314 512.8114 L215 512.8114" clip-path="url(#clipPath2)"/>
      <path d="M207 512.8114 L219 517.8114 L216 512.8114 L219 507.8114 Z" clip-path="url(#clipPath2)" stroke="none"/>
      <text x="237.6617" xml:space="preserve" y="580.9657" clip-path="url(#clipPath2)" font-family="sans-serif" stroke="none">Formulaire KO</text>
      <path fill="none" d="M125.5 688.2914 L125.5 750.5 L199 750.5" clip-path="url(#clipPath2)"/>
      <path d="M207 750.5 L195 745.5 L198 750.5 L195 755.5 Z" clip-path="url(#clipPath2)" stroke="none"/>
      <text x="52.5303" xml:space="preserve" y="730.5522" clip-path="url(#clipPath2)" font-family="sans-serif" stroke="none">Formulaire OK</text>
      <path fill="none" d="M451.5 560.3085 L451.5 750.5 L378 750.5" clip-path="url(#clipPath2)"/>
      <path d="M370 750.5 L382 755.5 L379 750.5 L382 745.5 Z" clip-path="url(#clipPath2)" stroke="none"/>
      <text x="378.5303" xml:space="preserve" y="666.5522" clip-path="url(#clipPath2)" font-family="sans-serif" stroke="none">Formulaire OK</text>
    </g>
  </g>
</svg>
