<?xml version="1.0" encoding="UTF-8"?><svg xmlns="http://www.w3.org/2000/svg" xmlns:xlink="http://www.w3.org/1999/xlink" fill-opacity="1" color-rendering="auto" color-interpolation="auto" text-rendering="auto" stroke="black" stroke-linecap="square" width="339" stroke-miterlimit="10" shape-rendering="auto" stroke-opacity="1" fill="black" stroke-dasharray="none" font-weight="normal" stroke-width="1" height="568" font-family="'Dialog'" font-style="normal" stroke-linejoin="miter" font-size="12px" stroke-dashoffset="0" image-rendering="auto">
  <!--Generated by ySVG 2.5-->
  <defs id="genericDefs"/>
  <g>
    <defs id="defs1">
      <clipPath clipPathUnits="userSpaceOnUse" id="clipPath1">
        <path d="M0 0 L339 0 L339 568 L0 568 L0 0 Z"/>
      </clipPath>
      <clipPath clipPathUnits="userSpaceOnUse" id="clipPath2">
        <path d="M89 100 L428 100 L428 668 L89 668 L89 100 Z"/>
      </clipPath>
    </defs>
    <g fill="white" text-rendering="geometricPrecision" shape-rendering="geometricPrecision" transform="translate(-89,-100)" stroke="white">
      <rect x="89" width="339" height="568" y="100" clip-path="url(#clipPath2)" stroke="none"/>
    </g>
    <g fill="rgb(255,204,0)" text-rendering="geometricPrecision" shape-rendering="geometricPrecision" transform="matrix(1,0,0,1,-89,-100)" stroke="rgb(255,204,0)">
      <rect x="118" width="163" height="101" y="115" clip-path="url(#clipPath2)" stroke="none"/>
    </g>
    <g text-rendering="geometricPrecision" stroke-miterlimit="1.45" shape-rendering="geometricPrecision" transform="matrix(1,0,0,1,-89,-100)" stroke-linecap="butt">
      <rect fill="none" x="118" width="163" height="101" y="115" clip-path="url(#clipPath2)"/>
      <text x="147.7617" xml:space="preserve" y="169.6543" clip-path="url(#clipPath2)" font-family="sans-serif" stroke="none">Home Unconnect</text>
    </g>
    <g fill="rgb(255,204,0)" text-rendering="geometricPrecision" shape-rendering="geometricPrecision" transform="matrix(1,0,0,1,-89,-100)" stroke="rgb(255,204,0)">
      <rect x="118" width="163" height="101" y="256.3114" clip-path="url(#clipPath2)" stroke="none"/>
    </g>
    <g text-rendering="geometricPrecision" stroke-miterlimit="1.45" shape-rendering="geometricPrecision" transform="matrix(1,0,0,1,-89,-100)" stroke-linecap="butt">
      <rect fill="none" x="118" width="163" height="101" y="256.3114" clip-path="url(#clipPath2)"/>
      <text x="146.0098" xml:space="preserve" y="310.9657" clip-path="url(#clipPath2)" font-family="sans-serif" stroke="none">Page d'inscription</text>
    </g>
    <g fill="rgb(255,204,0)" text-rendering="geometricPrecision" shape-rendering="geometricPrecision" transform="matrix(1,0,0,1,-89,-100)" stroke="rgb(255,204,0)">
      <path d="M135.4461 454.2739 L199.5001 397.6225 L263.5542 454.2739 L199.5001 510.9252 Z" fill-rule="evenodd" clip-path="url(#clipPath2)" stroke="none"/>
    </g>
    <g text-rendering="geometricPrecision" stroke-miterlimit="1.45" shape-rendering="geometricPrecision" transform="matrix(1,0,0,1,-89,-100)" stroke-linecap="butt">
      <path fill="none" d="M135.4461 454.2739 L199.5001 397.6225 L263.5542 454.2739 L199.5001 510.9252 Z" fill-rule="evenodd" clip-path="url(#clipPath2)"/>
      <text x="148.0986" xml:space="preserve" y="458.4283" clip-path="url(#clipPath2)" font-family="sans-serif" stroke="none">Inscription validé</text>
    </g>
    <g fill="rgb(255,204,0)" text-rendering="geometricPrecision" shape-rendering="geometricPrecision" transform="matrix(1,0,0,1,-89,-100)" stroke="rgb(255,204,0)">
      <rect x="118" width="163" height="101" y="551.2366" clip-path="url(#clipPath2)" stroke="none"/>
    </g>
    <g text-rendering="geometricPrecision" stroke-miterlimit="1.45" shape-rendering="geometricPrecision" transform="matrix(1,0,0,1,-89,-100)" stroke-linecap="butt">
      <rect fill="none" x="118" width="163" height="101" y="551.2366" clip-path="url(#clipPath2)"/>
      <text x="147.5654" xml:space="preserve" y="605.8909" clip-path="url(#clipPath2)" font-family="sans-serif" stroke="none">Home Connected</text>
      <path fill="none" d="M199.5 216 L199.5 248.3114" clip-path="url(#clipPath2)"/>
      <path d="M199.5 256.3114 L204.5 244.3114 L199.5 247.3114 L194.5 244.3114 Z" clip-path="url(#clipPath2)" stroke="none"/>
      <path fill="none" d="M199.5 357.3114 L199.5 389.602" clip-path="url(#clipPath2)"/>
      <path d="M199.5 397.602 L204.5 385.602 L199.5 388.602 L194.5 385.602 Z" clip-path="url(#clipPath2)" stroke="none"/>
      <text x="106.834" xml:space="preserve" y="381.6214" clip-path="url(#clipPath2)" font-family="sans-serif" stroke="none">Envoie du formulaire</text>
      <path fill="none" d="M263.5711 454.274 L367.8356 454.274 L367.8356 306.8114 L289 306.8114" clip-path="url(#clipPath2)"/>
      <path d="M281 306.8114 L293 311.8114 L290 306.8114 L293 301.8114 Z" clip-path="url(#clipPath2)" stroke="none"/>
      <text x="324.8659" xml:space="preserve" y="384.697" clip-path="url(#clipPath2)" font-family="sans-serif" stroke="none">Formulaire KO</text>
      <path fill="none" d="M199.5 510.9046 L199.5 543.2366" clip-path="url(#clipPath2)"/>
      <path d="M199.5 551.2366 L204.5 539.2366 L199.5 542.2366 L194.5 539.2366 Z" clip-path="url(#clipPath2)" stroke="none"/>
      <text x="156.5303" xml:space="preserve" y="535.2352" clip-path="url(#clipPath2)" font-family="sans-serif" stroke="none">Formulaire OK</text>
    </g>
  </g>
</svg>
